<?xml version="1.0" encoding="utf-8"?>
<!-- Generator: Adobe Illustrator 25.4.1, SVG Export Plug-In . SVG Version: 6.00 Build 0)  -->
<svg version="1.1" id="Layer_1" xmlns="http://www.w3.org/2000/svg" xmlns:xlink="http://www.w3.org/1999/xlink" x="0px" y="0px"
	 viewBox="0 0 1920 1080" style="enable-background:new 0 0 1920 1080;" xml:space="preserve">
<style type="text/css">
	.st0{fill:#FEFFFF;}
	.st1{fill:url(#SVGID_1_);}
	.st2{fill:none;stroke:url(#SVGID_00000007404487815922221440000016513275166588388256_);stroke-width:5;stroke-miterlimit:10;}
	.st3{fill:url(#SVGID_00000097463616528128380170000001561065258732580271_);}
	.st4{fill:url(#SVGID_00000181081510503865225410000005543013785267248791_);}
	.st5{fill:url(#SVGID_00000043441966553917445520000013865335098399790750_);}
	.st6{fill:url(#SVGID_00000145736736749735355620000004770849151097087159_);}
	.st7{fill:#FFFFFF;}
	.st8{fill:url(#SVGID_00000020367457533072128260000001110672121072897412_);}
	.st9{fill:url(#SVGID_00000181049527247011884150000009837680239236552585_);}
	.st10{fill:url(#SVGID_00000027578887517039751450000003992944564037644987_);}
	.st11{fill:url(#SVGID_00000168102260062910583320000006673415036658873492_);}
	.st12{fill:url(#SVGID_00000036223424729862350020000017685062442204373666_);}
</style>
<g>
	<polygon class="st0" points="440.7,528.3 440.7,621.2 468.3,636.4 468.3,604.4 454.5,596.3 454.5,567.2 519.6,603.7 519.6,678.1 
		506.3,669.9 506.3,685.5 402.1,626.2 402.1,612 389.4,604.2 389.4,485.3 402.1,492.5 402.1,476 507,536 507,551.2 519.6,558 
		519.6,572.9 	"/>
	<linearGradient id="SVGID_1_" gradientUnits="userSpaceOnUse" x1="519.6309" y1="580.7363" x2="651.0355" y2="580.7363">
		<stop  offset="0" style="stop-color:#F41E28"/>
		<stop  offset="4.562116e-02" style="stop-color:#F42528"/>
		<stop  offset="0.3357" style="stop-color:#F34D28"/>
		<stop  offset="0.6012" style="stop-color:#F26928"/>
		<stop  offset="0.8313" style="stop-color:#F17B28"/>
		<stop  offset="1" style="stop-color:#F18128"/>
	</linearGradient>
	<polygon class="st1" points="534,536.5 534,550.4 519.6,558 519.6,635.8 519.6,678.1 532.3,671.2 532.3,685.5 636.7,624.8 
		636.7,611 649.3,602.8 649.3,589.3 558.9,640 558.9,549.1 651,496.7 651,484.9 636.7,491.7 636.7,476 	"/>
	
		<linearGradient id="SVGID_00000161606566674204233940000011349864555448953265_" gradientUnits="userSpaceOnUse" x1="365.2871" y1="539.9739" x2="675.1369" y2="539.9739">
		<stop  offset="0" style="stop-color:#F41E28"/>
		<stop  offset="4.562116e-02" style="stop-color:#F42528"/>
		<stop  offset="0.3357" style="stop-color:#F34D28"/>
		<stop  offset="0.6012" style="stop-color:#F26928"/>
		<stop  offset="0.8313" style="stop-color:#F17B28"/>
		<stop  offset="1" style="stop-color:#F18128"/>
	</linearGradient>
	
		<polygon style="fill:none;stroke:url(#SVGID_00000161606566674204233940000011349864555448953265_);stroke-width:5;stroke-miterlimit:10;" points="
		367.8,449.4 367.8,609.1 382.4,616.1 382.4,632.8 517.9,711.4 658.1,630.1 658.1,611.7 672.6,604.1 672.6,453.2 531.9,370.2 
		520.2,378.8 504.7,368.6 	"/>
	
		<linearGradient id="SVGID_00000109732505264106453870000002638973430981138048_" gradientUnits="userSpaceOnUse" x1="429.2641" y1="453.3337" x2="477.7485" y2="453.3337">
		<stop  offset="0" style="stop-color:#F41E28"/>
		<stop  offset="4.562116e-02" style="stop-color:#F42528"/>
		<stop  offset="0.3357" style="stop-color:#F34D28"/>
		<stop  offset="0.6012" style="stop-color:#F26928"/>
		<stop  offset="0.8313" style="stop-color:#F17B28"/>
		<stop  offset="1" style="stop-color:#F18128"/>
	</linearGradient>
	<polygon style="fill:url(#SVGID_00000109732505264106453870000002638973430981138048_);" points="429.3,452.9 453.7,438.9 
		477.7,452.9 454.5,467.8 	"/>
	
		<linearGradient id="SVGID_00000010273763706187385960000015994674442099060402_" gradientUnits="userSpaceOnUse" x1="493.5139" y1="415.3859" x2="541.9983" y2="415.3859">
		<stop  offset="0" style="stop-color:#F41E28"/>
		<stop  offset="4.562116e-02" style="stop-color:#F42528"/>
		<stop  offset="0.3357" style="stop-color:#F34D28"/>
		<stop  offset="0.6012" style="stop-color:#F26928"/>
		<stop  offset="0.8313" style="stop-color:#F17B28"/>
		<stop  offset="1" style="stop-color:#F18128"/>
	</linearGradient>
	<polygon style="fill:url(#SVGID_00000010273763706187385960000015994674442099060402_);" points="493.5,415 517.9,400.9 542,415 
		518.7,429.9 	"/>
	
		<linearGradient id="SVGID_00000080196373804942137220000001834678030830389150_" gradientUnits="userSpaceOnUse" x1="493.5139" y1="490.4893" x2="541.9983" y2="490.4893">
		<stop  offset="0" style="stop-color:#F41E28"/>
		<stop  offset="4.562116e-02" style="stop-color:#F42528"/>
		<stop  offset="0.3357" style="stop-color:#F34D28"/>
		<stop  offset="0.6012" style="stop-color:#F26928"/>
		<stop  offset="0.8313" style="stop-color:#F17B28"/>
		<stop  offset="1" style="stop-color:#F18128"/>
	</linearGradient>
	<polygon style="fill:url(#SVGID_00000080196373804942137220000001834678030830389150_);" points="493.5,490.1 517.9,476 542,490.1 
		518.7,505 	"/>
	
		<linearGradient id="SVGID_00000137125700951263089510000003078996189445318829_" gradientUnits="userSpaceOnUse" x1="559.1105" y1="453.3337" x2="607.5948" y2="453.3337">
		<stop  offset="0" style="stop-color:#F41E28"/>
		<stop  offset="4.562116e-02" style="stop-color:#F42528"/>
		<stop  offset="0.3357" style="stop-color:#F34D28"/>
		<stop  offset="0.6012" style="stop-color:#F26928"/>
		<stop  offset="0.8313" style="stop-color:#F17B28"/>
		<stop  offset="1" style="stop-color:#F18128"/>
	</linearGradient>
	<polygon style="fill:url(#SVGID_00000137125700951263089510000003078996189445318829_);" points="559.1,452.9 583.5,438.9 
		607.6,452.9 584.3,467.8 	"/>
	<g>
		<g>
			<path d="M796.1,611.5h-50.9v-10.4H735v-10h-10.2v-30.6H735v-10.2h10.2v-10.2h50.9v10.2h-40.7v10.2h-10.2v30.6h10.2v10.2h20.4V581
				h-10.2v-10.2h30.6V611.5z"/>
			<path d="M880.4,611.5h-20.4v-20.4h-30.6v20.4h-20.4v-50.9h10.2v-10.2h10.2v-10.2h30.6v10.2h10.2v10.2h10.2V611.5z M860.1,581
				v-20.4h-10.2v-10.2h-10.2v10.2h-10.2V581H860.1z"/>
			<path d="M964.8,611.5h-20.4V581h-10.2v10.2H924V581h-10.2v30.6h-20.4v-71.3h20.4v10.2H924v10.2h10.2v-10.2h10.2v-10.2h20.4V611.5
				z"/>
			<path d="M1049.1,611.5h-71.3v-71.3h71.3v10.2h-50.9v20.4h40.7V581h-40.7v20.4h50.9V611.5z"/>
			<path d="M1133.4,601.4h-10.2v10.2h-50.9v-10.2h-10.2v-10.2h20.4v10.2h30.6V581h-40.7v-10.2h-10.2v-20.4h10.2v-10.2h40.7v10.2
				h10.2v10.2h-20.4v-10.2h-20.4v20.4h40.7V581h10.2V601.4z"/>
		</g>
		<g>
			<path class="st7" d="M796.1,611.5h-50.9v-10.4H735v-10h-10.2v-30.6H735v-10.2h10.2v-10.2h50.9v10.2h-40.7v10.2h-10.2v30.6h10.2
				v10.2h20.4V581h-10.2v-10.2h30.6V611.5z"/>
			<path class="st7" d="M880.4,611.5h-20.4v-20.4h-30.6v20.4h-20.4v-50.9h10.2v-10.2h10.2v-10.2h30.6v10.2h10.2v10.2h10.2V611.5z
				 M860.1,581v-20.4h-10.2v-10.2h-10.2v10.2h-10.2V581H860.1z"/>
			<path class="st7" d="M964.8,611.5h-20.4V581h-10.2v10.2H924V581h-10.2v30.6h-20.4v-71.3h20.4v10.2H924v10.2h10.2v-10.2h10.2
				v-10.2h20.4V611.5z"/>
			<path class="st7" d="M1049.1,611.5h-71.3v-71.3h71.3v10.2h-50.9v20.4h40.7V581h-40.7v20.4h50.9V611.5z"/>
			<path class="st7" d="M1133.4,601.4h-10.2v10.2h-50.9v-10.2h-10.2v-10.2h20.4v10.2h30.6V581h-40.7v-10.2h-10.2v-20.4h10.2v-10.2
				h40.7v10.2h10.2v10.2h-20.4v-10.2h-20.4v20.4h40.7V581h10.2V601.4z"/>
		</g>
	</g>
	<g>
		<g>
			<path d="M1220,601.4h-10.2v10.2h-40.7v-10.2h-10.2v-10.2h-10.2v-30.6h10.2v-10.2h10.2v-10.2h40.7v10.2h10.2v10.2h-20.4v-10.2
				h-20.4v10.2h-10.2v30.6h10.2v10.2h20.4v-10.2h20.4V601.4z"/>
			<path d="M1304.3,611.5h-30.6v-10.2h-10.2v-10.2h-10.2v20.4H1233v-71.3h61.1v10.2h10.2V581h-20.4v10.2h10.2v10.2h10.2V611.5z
				 M1283.9,570.8v-20.4h-30.6V581h20.4v-10.2H1283.9z"/>
			<path d="M1388.6,611.5h-20.4v-20.4h-30.6v20.4h-20.4v-50.9h10.2v-10.2h10.2v-10.2h30.6v10.2h10.2v10.2h10.2V611.5z M1368.3,581
				v-20.4h-10.2v-10.2h-10.2v10.2h-10.2V581H1368.3z"/>
			<path d="M1473,550.4H1422v20.4h40.7V581H1422v30.6h-20.4v-71.3h71.3V550.4z"/>
			<path d="M1552.2,550.4h-20.4v61.1h-20.4v-61.1h-20.4v-10.2h61.1V550.4z"/>
		</g>
		<g>
			
				<linearGradient id="SVGID_00000142172895689989608310000000086854143078563768_" gradientUnits="userSpaceOnUse" x1="1148.6807" y1="575.8992" x2="1552.2129" y2="575.8992">
				<stop  offset="0" style="stop-color:#F41E28"/>
				<stop  offset="4.562116e-02" style="stop-color:#F42528"/>
				<stop  offset="0.3357" style="stop-color:#F34D28"/>
				<stop  offset="0.6012" style="stop-color:#F26928"/>
				<stop  offset="0.8313" style="stop-color:#F17B28"/>
				<stop  offset="1" style="stop-color:#F18128"/>
			</linearGradient>
			<path style="fill:url(#SVGID_00000142172895689989608310000000086854143078563768_);" d="M1220,601.4h-10.2v10.2h-40.7v-10.2
				h-10.2v-10.2h-10.2v-30.6h10.2v-10.2h10.2v-10.2h40.7v10.2h10.2v10.2h-20.4v-10.2h-20.4v10.2h-10.2v30.6h10.2v10.2h20.4v-10.2
				h20.4V601.4z"/>
			
				<linearGradient id="SVGID_00000171696871868898494080000011373647711428972975_" gradientUnits="userSpaceOnUse" x1="1148.6807" y1="575.8992" x2="1552.2129" y2="575.8992">
				<stop  offset="0" style="stop-color:#F41E28"/>
				<stop  offset="4.562116e-02" style="stop-color:#F42528"/>
				<stop  offset="0.3357" style="stop-color:#F34D28"/>
				<stop  offset="0.6012" style="stop-color:#F26928"/>
				<stop  offset="0.8313" style="stop-color:#F17B28"/>
				<stop  offset="1" style="stop-color:#F18128"/>
			</linearGradient>
			<path style="fill:url(#SVGID_00000171696871868898494080000011373647711428972975_);" d="M1304.3,611.5h-30.6v-10.2h-10.2v-10.2
				h-10.2v20.4H1233v-71.3h61.1v10.2h10.2V581h-20.4v10.2h10.2v10.2h10.2V611.5z M1283.9,570.8v-20.4h-30.6V581h20.4v-10.2H1283.9z"
				/>
			
				<linearGradient id="SVGID_00000012472892310986066940000001758871674678736536_" gradientUnits="userSpaceOnUse" x1="1148.6807" y1="575.8992" x2="1552.2129" y2="575.8992">
				<stop  offset="0" style="stop-color:#F41E28"/>
				<stop  offset="4.562116e-02" style="stop-color:#F42528"/>
				<stop  offset="0.3357" style="stop-color:#F34D28"/>
				<stop  offset="0.6012" style="stop-color:#F26928"/>
				<stop  offset="0.8313" style="stop-color:#F17B28"/>
				<stop  offset="1" style="stop-color:#F18128"/>
			</linearGradient>
			<path style="fill:url(#SVGID_00000012472892310986066940000001758871674678736536_);" d="M1388.6,611.5h-20.4v-20.4h-30.6v20.4
				h-20.4v-50.9h10.2v-10.2h10.2v-10.2h30.6v10.2h10.2v10.2h10.2V611.5z M1368.3,581v-20.4h-10.2v-10.2h-10.2v10.2h-10.2V581H1368.3
				z"/>
			
				<linearGradient id="SVGID_00000067927367821453024190000011711996118146912141_" gradientUnits="userSpaceOnUse" x1="1148.6807" y1="575.8992" x2="1552.2129" y2="575.8992">
				<stop  offset="0" style="stop-color:#F41E28"/>
				<stop  offset="4.562116e-02" style="stop-color:#F42528"/>
				<stop  offset="0.3357" style="stop-color:#F34D28"/>
				<stop  offset="0.6012" style="stop-color:#F26928"/>
				<stop  offset="0.8313" style="stop-color:#F17B28"/>
				<stop  offset="1" style="stop-color:#F18128"/>
			</linearGradient>
			<path style="fill:url(#SVGID_00000067927367821453024190000011711996118146912141_);" d="M1473,550.4H1422v20.4h40.7V581H1422
				v30.6h-20.4v-71.3h71.3V550.4z"/>
			
				<linearGradient id="SVGID_00000069382033025190248390000003936772735007213184_" gradientUnits="userSpaceOnUse" x1="1148.6807" y1="575.8992" x2="1552.2129" y2="575.8992">
				<stop  offset="0" style="stop-color:#F41E28"/>
				<stop  offset="4.562116e-02" style="stop-color:#F42528"/>
				<stop  offset="0.3357" style="stop-color:#F34D28"/>
				<stop  offset="0.6012" style="stop-color:#F26928"/>
				<stop  offset="0.8313" style="stop-color:#F17B28"/>
				<stop  offset="1" style="stop-color:#F18128"/>
			</linearGradient>
			<path style="fill:url(#SVGID_00000069382033025190248390000003936772735007213184_);" d="M1552.2,550.4h-20.4v61.1h-20.4v-61.1
				h-20.4v-10.2h61.1V550.4z"/>
		</g>
	</g>
</g>
</svg>
